<svg class="logo" width="570" height="180" fill="none" xmlns="http://www.w3.org/2000/svg">
  <g>
    <path d="M86.654.025h-9.322c-1.718 0-2.844 1.32-2.844 2.985v69.273c0 1.656 1.126 2.982 2.844 2.982h9.32c1.72 0 3.04-1.326 3.04-2.983V3.01c0-1.656-1.32-2.985-3.037-2.985ZM57.547 54.733c-.848-1.853-3.269-2.367-4.759-.972a21.982 21.982 0 0 1-15.061 5.948c-15.273 0-26.931-15.463-20.11-31.56a19.933 19.933 0 0 1 10.61-10.572c9.321-3.93 18.389-1.69 24.4 3.828a3.008 3.008 0 0 0 4.766-.964l4.04-8.838a3.307 3.307 0 0 0-1.042-4.014C50.934.457 38.024-2.347 24.568 2.232 13.765 5.908 5.35 14.594 1.92 25.452c-8.204 25.976 11.007 49.856 35.806 49.856 8.627 0 16.558-2.916 22.908-7.792 1.203-.92 1.576-2.569.95-3.937l-4.04-8.848.002.002ZM223.42 25.452c-3.429-10.858-11.852-19.553-22.648-23.22-7.645-2.603-15.112-2.815-21.869-1.21-11.269 2.511-19.438 7.852-26.61 23.22l-14.402 31.174L113.45 1.794a3.01 3.01 0 0 0-2.735-1.759L100.039.018a3.018 3.018 0 0 0-2.534 1.38 3.002 3.002 0 0 0-.208 2.872l31.698 69.173c.491 1.072 1.557 1.79 2.733 1.79l.518.043h11.988c.236 0 .483-.05.71-.126a3.13 3.13 0 0 0 1.88-1.683S162.69 37.42 162.878 36.98c4.825-11.367 7.754-16.1 15.424-19.352 5.799-2.459 12.657-2.763 19.286.236 4.614 2.088 8.247 5.899 10.177 10.571a25.276 25.276 0 0 1 1.939 8.9c.17 12.328-9.787 22.373-22.096 22.373a21.984 21.984 0 0 1-15.062-5.947c-1.49-1.395-3.912-.88-4.758.972l-4.041 8.847c-.624 1.377-.252 3.017.951 3.937a37.478 37.478 0 0 0 22.91 7.792c24.796 0 44.007-23.88 35.803-49.856M56.982 108.562c.815 0 1.443.252 1.881.75.502.502.753 1.129.753 1.879v60.111c0 .94-.314 1.692-.94 2.254a2.877 2.877 0 0 1-1.975.752c-.377 0-.785-.063-1.223-.189a2.597 2.597 0 0 1-1.034-.75l-41.938-56.448 1.598-.846v55.699c0 .688-.25 1.283-.752 1.784a2.542 2.542 0 0 1-1.88.752c-.815 0-1.473-.252-1.975-.752a2.62 2.62 0 0 1-.658-1.784v-60.395c0-.94.283-1.628.848-2.067.562-.5 1.19-.75 1.88-.75.374 0 .782.093 1.222.282a1.8 1.8 0 0 1 1.034.751l41.467 55.789-.94 1.69v-55.883c0-.752.251-1.377.752-1.879.563-.5 1.191-.75 1.88-.75Zm42.27 7.232-22.848 56.729c-.253.626-.596 1.096-1.036 1.409a2.519 2.519 0 0 1-1.504.468c-.877 0-1.535-.218-1.974-.655a3.056 3.056 0 0 1-.752-1.786c-.063-.313-.032-.689.094-1.126l24.824-60.675c.312-.689.689-1.157 1.127-1.409a3.132 3.132 0 0 1 1.694-.468c.626 0 1.158.187 1.598.563a2.89 2.89 0 0 1 1.128 1.314l24.73 60.392c.126.378.187.752.187 1.129 0 .876-.281 1.566-.846 2.066a3.12 3.12 0 0 1-1.973.657 3.137 3.137 0 0 1-1.694-.47 3.924 3.924 0 0 1-1.033-1.409L97.56 115.418l1.692.376Zm-17.396 39.541 2.35-5.541h29.15l1.129 5.541H81.856Zm95.223-46.867c.877 0 1.566.25 2.067.751.565.502.848 1.126.848 1.879 0 .437-.096.907-.283 1.409l-25.107 59.92c-.312.627-.722 1.097-1.222 1.41-.501.313-1.002.468-1.504.468a2.962 2.962 0 0 1-1.598-.468 2.4 2.4 0 0 1-1.035-1.314l-25.012-59.832a9.394 9.394 0 0 1-.188-.655 3.502 3.502 0 0 1-.095-.846c0-.814.283-1.473.848-1.973.626-.501 1.253-.751 1.879-.751 1.317 0 2.257.688 2.821 2.067l23.507 56.165h-1.692l23.132-56.353c.626-1.251 1.505-1.877 2.634-1.877Zm20.877 62.928a3.006 3.006 0 0 1-1.034 2.066c-.564.564-1.223.846-1.975.846-.878 0-1.598-.282-2.162-.846-.502-.563-.753-1.252-.753-2.066v-59.922c0-.815.282-1.503.846-2.066.565-.564 1.285-.846 2.163-.846.752 0 1.411.282 1.975.846.626.563.94 1.251.94 2.066v59.922Zm47.11 3.852c-4.827 0-9.31-.846-13.447-2.538-4.138-1.69-7.742-4.037-10.814-7.043-3.009-3.068-5.359-6.669-7.051-10.8-1.694-4.135-2.54-8.612-2.54-13.432 0-4.822.846-9.299 2.54-13.432 1.692-4.132 4.042-7.702 7.051-10.706 3.072-3.069 6.676-5.449 10.814-7.139 4.137-1.692 8.62-2.536 13.447-2.536 3.321 0 6.519.407 9.591 1.22 3.133.753 5.923 1.91 8.367 3.476.439.313.753.69.94 1.127.247.36.378.786.377 1.222 0 .877-.281 1.597-.846 2.16-.564.501-1.16.751-1.787.751-.312 0-.626-.031-.94-.094l-.752-.376a31.131 31.131 0 0 0-6.958-2.817 30.075 30.075 0 0 0-7.992-1.033c-5.392 0-10.188 1.22-14.387 3.663a26.227 26.227 0 0 0-9.874 10.049c-2.381 4.259-3.574 9.079-3.574 14.465 0 5.384 1.193 10.206 3.574 14.463a26.225 26.225 0 0 0 9.874 10.051c4.199 2.441 8.995 3.663 14.387 3.663a30.398 30.398 0 0 0 8.461-1.222c2.885-.814 5.36-1.908 7.428-3.287l-.468 1.973v-21.602l1.41 1.314h-16.268c-.814 0-1.505-.282-2.069-.846-.563-.563-.846-1.22-.846-1.971 0-.876.283-1.566.846-2.066.564-.502 1.255-.753 2.069-.753h17.96c.815 0 1.474.283 1.975.846.563.501.846 1.158.846 1.973v22.635c0 .501-.126.972-.377 1.41a3.552 3.552 0 0 1-1.033 1.126c-2.758 1.878-5.861 3.381-9.31 4.508-3.386 1.065-6.926 1.596-10.624 1.596v.002Zm57.857-59.454-22.849 56.729c-.251.626-.595 1.096-1.035 1.409-.439.313-.94.468-1.505.468-.876 0-1.535-.218-1.973-.655a3.04 3.04 0 0 1-.752-1.786c-.063-.313-.033-.689.093-1.126l24.824-60.675c.312-.689.689-1.157 1.128-1.409a3.13 3.13 0 0 1 1.693-.468c.626 0 1.16.187 1.599.563.501.312.876.751 1.127 1.314l24.73 60.392c.126.378.188.752.188 1.129 0 .876-.282 1.566-.846 2.066-.563.438-1.26.67-1.974.657a3.131 3.131 0 0 1-1.693-.47 3.914 3.914 0 0 1-1.034-1.409l-23.413-57.105 1.692.376Zm-17.396 39.541 2.35-5.541h29.15l1.129 5.541h-32.629Zm71.149 18.973c-.879 0-1.598-.282-2.163-.846a2.871 2.871 0 0 1-.752-1.972v-59.829h5.83v59.829c0 .752-.282 1.409-.846 1.972a2.805 2.805 0 0 1-2.069.846Zm-22.38-60.393c-.752 0-1.41-.25-1.973-.751-.565-.502-.848-1.159-.848-1.973 0-.752.283-1.377.848-1.879a2.875 2.875 0 0 1 1.973-.75h44.76c.752 0 1.41.252 1.973.75.564.502.846 1.159.846 1.973 0 .814-.282 1.472-.846 1.973-.563.438-1.26.67-1.973.657h-44.76Zm62.392-5.353h34.508c.752 0 1.411.282 1.975.846.563.5.846 1.157.846 1.971 0 .815-.283 1.472-.846 1.972a2.883 2.883 0 0 1-1.975.753H398.85l.94-1.597v26.392l-1.035-1.221h28.209c.753 0 1.411.281 1.976.846.564.562.846 1.219.846 1.971 0 .814-.282 1.473-.846 1.973a2.89 2.89 0 0 1-1.976.751h-28.02l.846-.94v27.051l-.471-.564h31.877c.752 0 1.411.281 1.975.846.563.564.846 1.221.846 1.971 0 .816-.283 1.473-.846 1.973a2.877 2.877 0 0 1-1.975.752h-34.508c-.753 0-1.411-.282-1.976-.846a2.686 2.686 0 0 1-.845-1.972v-60.111c0-.751.281-1.408.845-1.971.565-.564 1.223-.846 1.976-.846Z" fill="#fff"/>
    <path d="M504.657 126.752a17.22 17.22 0 0 0-7.586-1.749 17.214 17.214 0 0 0-7.585 1.748l4.708 8.114a.882.882 0 0 0 .999.405 7.184 7.184 0 0 1 3.739 0l.007.002h.004l.002.002a.894.894 0 0 0 1.005-.405l4.707-8.118v.001Z" fill="#239DFF"/>
    <path fill-rule="evenodd" clip-rule="evenodd" d="M499.484 146.347a4.794 4.794 0 0 0 2.369-4.789 4.801 4.801 0 0 0-3.532-4.013 4.827 4.827 0 0 0-3.664.481 4.792 4.792 0 0 0-2.254 2.914 4.786 4.786 0 0 0 .485 3.649 4.847 4.847 0 0 0 6.596 1.758Zm-.009-4.161a2.4 2.4 0 0 1-2.404 2.394 2.4 2.4 0 0 1-1.7-.7 2.392 2.392 0 0 1-.707-1.694 2.4 2.4 0 0 1 2.407-2.394 2.399 2.399 0 0 1 2.404 2.394Z" fill="#239DFF"/>
    <path d="m492.143 136.04-4.706-8.11a17.179 17.179 0 0 0-7.593 13.073h9.418a.882.882 0 0 0 .855-.666h.002l.002-.004a7.105 7.105 0 0 1 1.872-3.225.876.876 0 0 0 .15-1.068Zm-12.299 7.319a17.153 17.153 0 0 0 2.277 7.413 17.207 17.207 0 0 0 5.31 5.661l4.708-8.111a.875.875 0 0 0-.148-1.064 7.051 7.051 0 0 1-1.152-1.494 7.028 7.028 0 0 1-.729-1.75.879.879 0 0 0-.852-.655h-9.414Zm9.636 14.254a17.2 17.2 0 0 0 7.591 1.752 17.236 17.236 0 0 0 7.583-1.748l-4.704-8.114a.887.887 0 0 0-.998-.407 7.23 7.23 0 0 1-3.765-.004.883.883 0 0 0-.997.405l-4.71 8.116Zm12.517-9.288 4.706 8.113a17.206 17.206 0 0 0 5.314-5.66 17.153 17.153 0 0 0 2.278-7.415h-9.423a.88.88 0 0 0-.851.657 7.162 7.162 0 0 1-1.88 3.245.875.875 0 0 0-.144 1.062v-.002Zm2.027-7.974a.888.888 0 0 0 .854.657h9.417a17.152 17.152 0 0 0-2.277-7.415 17.213 17.213 0 0 0-5.311-5.662l-4.708 8.113a.87.87 0 0 0-.108.556.87.87 0 0 0 .254.506 7.241 7.241 0 0 1 1.879 3.245Z" fill="#239DFF"/>
    <path fill-rule="evenodd" clip-rule="evenodd" d="M457.678 104.4a4.923 4.923 0 0 0-4.548 3.022 4.9 4.9 0 0 0-.377 1.878v65.8a4.9 4.9 0 0 0 3.042 4.529 4.923 4.923 0 0 0 1.883.371h67.9a4.932 4.932 0 0 0 4.228-2.387l39.491-65.801c1.958-3.267-.406-7.412-4.229-7.412h-107.39Zm63.95 36.167a2.458 2.458 0 0 1 2.465-.734 2.449 2.449 0 0 1 1.506 1.132 2.42 2.42 0 0 1 .251 1.864 2.443 2.443 0 0 1-3.025 1.715 2.45 2.45 0 0 1-1.196-.733 1.303 1.303 0 0 0-.968-.448h-3.994c-.379 6.309-3.782 11.82-8.781 15.116l2.008 3.46a1.292 1.292 0 0 0 .86.601 2.439 2.439 0 0 1 1.959 2.316 2.428 2.428 0 0 1-.484 1.53 2.444 2.444 0 0 1-1.334.897 2.456 2.456 0 0 1-3.003-1.723 2.406 2.406 0 0 1 .041-1.396 1.302 1.302 0 0 0-.094-1.059l-1.998-3.445a19.594 19.594 0 0 1-8.77 2.059 19.58 19.58 0 0 1-8.776-2.063l-2.007 3.458a1.26 1.26 0 0 0-.092 1.041 2.432 2.432 0 0 1-.592 2.493 2.46 2.46 0 0 1-4.114-1.128 2.418 2.418 0 0 1 .72-2.399c.327-.297.729-.5 1.163-.586a1.303 1.303 0 0 0 .873-.609l2.002-3.45c-4.998-3.298-8.399-8.81-8.776-15.117h-4.008a1.282 1.282 0 0 0-.954.441 2.452 2.452 0 0 1-4.078-.653 2.439 2.439 0 0 1-.119-1.6 2.445 2.445 0 0 1 1.803-1.742 2.457 2.457 0 0 1 2.394.752 1.307 1.307 0 0 0 .967.446h3.995c.379-6.307 3.781-11.819 8.78-15.115l-2.008-3.461a1.287 1.287 0 0 0-.859-.599 2.445 2.445 0 0 1-1.953-2.316 2.439 2.439 0 0 1 1.813-2.427 2.456 2.456 0 0 1 3.003 1.722c.128.477.104.96-.042 1.397a1.31 1.31 0 0 0 .092 1.057l2.001 3.448a19.575 19.575 0 0 1 8.772-2.062c3.151 0 6.131.743 8.772 2.062l2.005-3.456c.09-.156.144-.33.16-.51a1.241 1.241 0 0 0-.066-.53 2.43 2.43 0 0 1 .594-2.495 2.453 2.453 0 0 1 3.465 0 2.432 2.432 0 0 1-1.234 4.113 1.297 1.297 0 0 0-.875.61l-2.002 3.449c4.998 3.296 8.4 8.809 8.777 15.118h4.008a1.28 1.28 0 0 0 .953-.441Z" fill="#239DFF"/>
  </g>
</svg>